<?xml version="1.0" encoding="utf-8"?>
<!-- Generator: Adobe Illustrator 28.1.0, SVG Export Plug-In . SVG Version: 6.00 Build 0)  -->
<svg version="1.1" id="Warstwa_1" xmlns="http://www.w3.org/2000/svg" xmlns:xlink="http://www.w3.org/1999/xlink" x="0px" y="0px"
	 viewBox="0 0 64 64" style="enable-background:new 0 0 64 64;" xml:space="preserve">
<style type="text/css">
	.st0{fill:url(#SVGID_1_);}
	.st1{fill:#FFFFFF;}
</style>
<linearGradient id="SVGID_1_" gradientUnits="userSpaceOnUse" x1="-9.094947e-13" y1="32" x2="64" y2="32">
	<stop  offset="0" style="stop-color:#138D96"/>
	<stop  offset="0.81" style="stop-color:#632366"/>
</linearGradient>
<path class="st0" d="M63.8,21.07c-0.51-5.14-3.33-10.14-8.44-12.78c-4.73-2.53-11.25-3.02-15.7-0.04c-3.73,2.51-4.84,7.57-8.17,7.15
	c-2.34-0.29-1.9-3.27-6.45-6.75c-1.06-0.82-2.24-1.23-3.49-1.63C13.07,4.45,4.64,8.75,1.44,15.99c-1.36,2.95-1.51,6.04-1.42,9.22
	c0.06,2.26,0.26,4.51,0.8,6.69c1.95,8.51,9.03,15.07,16.62,20.15c4.29,2.82,9.36,5.7,14.81,5.75c6.08,0.02,13.32-4.95,18.02-8.39
	c4.87-3.75,9.3-8.35,11.7-13.76c2.03-4.59,2.29-9.66,1.83-14.54L63.8,21.07z"/>
<g>
	<path class="st1" d="M31.78,23.45c0.01,0.06,0.02,0.12,0.02,0.17C31.8,23.57,31.79,23.51,31.78,23.45z"/>
	<path class="st1" d="M31.78,23.45c-0.02-0.19-0.06-0.39-0.1-0.6C31.72,23.07,31.76,23.27,31.78,23.45z"/>
	<path class="st1" d="M52.03,15.39c-0.93-2.33-4.09-2.3-6.27-1.64c-3.22,0.98-6.66,3.6-9.26,6.59c-0.15,0.05-0.36,0.12-0.54,0.22
		c-1.39,0.72-2.3,1.54-3.21,2.72c0.59-1.53,2.08-5.58,3.28-6.59c0.94-0.78,0.15,0.61,0.76,0.64c0.47,0.03,0.37-1-0.37-0.95
		c-0.29,0.02-0.59,0.4-0.76,0.6c-1.02,1.16-2.48,4.79-3.01,6.3c-0.02,0.06,0.02,0.19,0,0.25c-0.14,0.42-0.34,0.84-0.49,1.26
		c-0.22-0.05-0.46-0.05-0.66,0.02c-0.24-1.09-0.62-2.41-0.88-3.19c-0.33-0.98-1.97-5.5-3.45-5.21c-0.48,0.1-0.5,0.88-0.18,0.95
		c0.7,0.16-0.1-1.18,0.74-0.79c1.31,0.61,3.01,5.39,3.31,6.78c-1.43-2.37-3.13-2.82-3.61-3c-3.37-3.76-8.42-7.4-12.6-7.02
		c-1.96,0.18-3.27,1.64-3.17,3.38c0.08,1.32,1.25,4.82,1.43,5.93c0.2,1.25-0.05,3.55,1.83,4.96c1.8,1.36,3.52,0.55,5.6,0.5
		c-0.31,0.25-0.69,0.41-1.04,0.62c-1.12,0.68-2.05,1.3-2.68,2.41c-0.31,0.55-0.39,0.76-0.51,1.37c-0.32,1.61-0.08,3.25,0.88,4.67
		c1.68,2.49,6.91,5.24,9.34,1.85c1.01-1.41,3.35-6.89,4.42-8.88c0.44,2.16,0,6.49,0.49,8.07c0.04,0.14,0.44,1.14,0.6,1
		c1.24-1.11,0.56-7.51,0.86-9.23c1.49,2.64,2.54,5.48,4,8.13c0.2,0.37,0.34,0.73,0.6,1.08c1.77,2.35,5.06,1.39,7.17-0.04
		c0.53-0.36,1.05-0.78,1.48-1.24c0.95-1.02,1.56-2.29,1.66-3.63c0.25-3.25-1.63-4.66-4.53-6.14c2.19-0.05,3.77,0.83,5.71-0.56
		c1.91-1.37,1.63-3.55,1.83-4.75C51.1,20.92,52.69,17.04,52.03,15.39z M31.27,25.97c-0.2,0.58-0.31-0.31-0.65-1.04
		c-0.6-1.29-1.66-2.83-3-4.36c0.25,0.06,0.52,0.14,0.81,0.28c1.47,0.71,2.59,2.38,3.06,3.96C31.07,24.95,30.81,25.35,31.27,25.97z
		 M32.77,26.32c-0.47-0.39-0.06-0.48-0.02-0.68c0.09-0.46-0.18-0.74-0.54-0.84c0.56-1.66,1.69-3.08,3.43-3.99
		c0.36-0.19,0.6-0.3,0.77-0.36C34.75,22.38,33.44,24.45,32.77,26.32z"/>
</g>
</svg>
