<?xml version="1.0" encoding="UTF-8"?>
<svg id="Warstwa_1" data-name="Warstwa 1" xmlns="http://www.w3.org/2000/svg" viewBox="0 0 54.17 54.17">
  <defs>
    <style>
      .cls-1 {
        fill: #e1ae87;
      }

      .cls-1, .cls-2, .cls-3, .cls-4, .cls-5, .cls-6, .cls-7, .cls-8, .cls-9, .cls-10, .cls-11, .cls-12, .cls-13, .cls-14, .cls-15, .cls-16, .cls-17 {
        stroke-width: 0px;
      }

      .cls-2 {
        fill: #fbe5c3;
      }

      .cls-3 {
        fill: #724623;
      }

      .cls-4 {
        fill: #9e3e37;
      }

      .cls-5 {
        fill: #101f1a;
      }

      .cls-6 {
        fill: #f8ecdb;
      }

      .cls-7 {
        fill: #c18354;
      }

      .cls-8 {
        fill: #89332e;
      }

      .cls-9 {
        fill: #c86154;
      }

      .cls-10 {
        fill: #eac392;
      }

      .cls-11 {
        fill: #53301b;
      }

      .cls-12 {
        fill: #2f220f;
      }

      .cls-13 {
        fill: #0a0a09;
      }

      .cls-14 {
        fill: #e79d64;
      }

      .cls-15 {
        fill: #fbd7b0;
      }

      .cls-16 {
        fill: #4d1815;
      }

      .cls-17 {
        fill: #89502d;
      }
    </style>
  </defs>
  <path class="cls-6" d="M15.53,39.11c-.06.64-.13,1.33-.07,1.98.07.67.44,1.36.48,1.98-3.12-2-9.75-1.88-9.73,1.07,0,1.24,2.7,3.26,3.8,3.89,1.78,1.01,4.67,2,6.75,2.07.06.12.09.25.14.38-.46.4.17.55-.69.63-.51.05-1.27-.02-1.85,0-1.43.05-2.83.14-4.25.25-4.38-3.48-9.41-8.41-7.71-14.19,1.48,1.36,3.23,2.45,5.04,3.42-1.76-4-.63-10.13,1.1-14.09.53,3.56,2.98,8.5,5.42,11.33.21.24,1.48,1.72,1.58,1.29Z"/>
  <path class="cls-6" d="M44.25,51.35c-1.34-.12-2.7-.13-4.04-.25-.29-.03-.6-.03-.89-.06-.55-.07-1.1-.19-1.65-.31,3.43-.87,9.06-2.98,10.69-6.09.38-.73.54-1.14.07-1.91-1.39-2.27-6.74-.52-8.74.28-1.01.41-3.39,1.81-2.84,1.13.03-.02.09-.05.14-.06,1.21-.98,1.66-2.94,1.65-4.39,1.62-1.82,3.63-4.59,4.73-6.68.89-1.71,2.11-4.85,2.47-6.68,1.46,4.32,2.72,9.81,1.03,14.15,1.69-1.03,3.38-2.06,4.9-3.3.16,0,.35,1.09.38,1.29.72,5.28-3.98,9.64-7.88,12.9Z"/>
  <g>
    <path class="cls-16" d="M29.58,50.03c.02.16-.03.35,0,.5.02.13,0,.2.07.35.41.42.95.7,1.44,1.04,1.78,1.22,3.47,2.28,5.72,1.44,1.04-.39,2.17-1.32,2.5-2.32.3.04.6.04.89.06-1.51-.04.25.74.45,2.82,4.14.09,8.1-.45,12.06-.82.31-.17.69-.14.99-.28l-.14-.09c1.52.37-.11.19-2.02.63-10.22,1.14-20.56.69-30.85.69-.45,0-.99.13-1.44.13-5.07,0-10.15-.03-15.18-.63.4-.32.62,0,.65,0,2.84.27,5.65.33,8.5.5.39-.24.24-.75.38-1.04l2.19-1.76-1.44-.16c.58-.02,1.34.05,1.85,0,1.13,1.85,3.54,2.97,5.79,2.2,2.11-.72.7-.45-.38-.38l-.21-.09c2.7-.96,5.57-1.58,8.16-2.79Z"/>
    <path class="cls-16" d="M14.36,51.09l1.44.16-2.19,1.76c-.13.29.01.8-.38,1.04-2.85-.17-5.66-.23-8.5-.5-.04,0-.26-.32-.65,0-1.36-.16-2.77-.3-4.08-.69,3.31-.81,6.71-1.24,10.11-1.51,1.42-.11,2.82-.2,4.25-.25Z"/>
    <path class="cls-16" d="M44.25,51.35c3.13.29,6.27.64,9.32,1.38l.14.09c-.3.14-.68.11-.99.28-3.97.36-7.92.9-12.06.82-.2-2.09-1.96-2.86-.45-2.82,1.34.12,2.7.13,4.04.25Z"/>
  </g>
  <path class="cls-15" d="M17.65,32.39c.28,1.15,1.47,5.94,1.65,6.43.24.65.58,1.31,1.03,1.85,1.34,1.62,4.14,2.74,6.14,3.58,2.87-1.73,7.12-2.37,8.53-5.59.75-1.71.97-3.65,1.37-5.46,1.24,1.58,2.24,4.52,2.26,6.47.02,1.45-.43,3.42-1.65,4.39-.56.07-1.5.61-2.16.88-.22.09-2.39.82-1.03.5.77-.18,2.4-.87,3.05-1.32-.55.68,1.83-.72,2.84-1.13,2-.8,7.35-2.55,8.74-.28.47.77.32,1.18-.07,1.91-5.74,3.13-12.55,3.9-18.78,5.9-.03-.15.02-.34,0-.5-.14-1.21-.23-2.41-.65-3.58-.98.38-1.47.75-2.02,1.57-.07,0-.14.01-.21,0-.32-.07-1.85-.49-2.33-.63-1.17-.34-2.29-.77-3.43-1.19-.64-.41-1.98-.95-3.05-1.63-.81-.52-1.79-1.4-1.95-1.51-.04-.61-.41-1.31-.48-1.98-.06-.64,0-1.33.07-1.98.22-2.3,1.15-4.53,1.99-6.68.02-.05.09-.03.14-.03Z"/>
  <g>
    <path class="cls-4" d="M15.94,43.06c.17.11,1.14.99,1.95,1.51,1.07.68,2.41,1.22,3.05,1.63.02.02.12.17.48.28.05.22-2.06.45-2.36.47-2.56.19-7.01-.19-9.53-.75-.74-.17-2.39-.55-2.84-1.1-.43-.52-.26-1.03-.48-.97-.02-2.94,6.61-3.07,9.73-1.07Z"/>
    <path class="cls-8" d="M20.94,46.2c1.14.43,2.25.85,3.43,1.19-1.92,1.86-4.83,2.8-7.61,2.7-2.08-.08-4.98-1.06-6.75-2.07-1.1-.63-3.8-2.66-3.8-3.89.22-.05.05.46.48.97.46.55,2.1.93,2.84,1.1,2.51.56,6.97.95,9.53.75.31-.02,2.42-.25,2.36-.47-.36-.12-.46-.27-.48-.28Z"/>
  </g>
  <path class="cls-15" d="M37.67,50.72c-2.15.54-4.38.89-6.58,1.19-.49-.33-1.03-.62-1.44-1.04-.07-.14-.05-.22-.07-.35,6.23-2,13.05-2.77,18.78-5.9-1.63,3.11-7.27,5.22-10.69,6.09Z"/>
  <path class="cls-10" d="M37.67,50.72c.54.12,1.09.25,1.65.31-.33,1.01-1.46,1.94-2.5,2.32-2.25.84-3.94-.23-5.72-1.44,2.2-.3,4.43-.65,6.58-1.19Z"/>
  <path class="cls-1" d="M36.98,44.06s-.1.04-.14.06c-.65.45-2.28,1.14-3.05,1.32-1.36.32.8-.41,1.03-.5.66-.27,1.6-.81,2.16-.88Z"/>
  <g>
    <path class="cls-9" d="M36.37,33.2c-.4,1.81-.62,3.75-1.37,5.46-2.13,3.42-11.02,2.8-14.67,2.01-.45-.54-.79-1.2-1.03-1.85-.18-.49-1.37-5.28-1.65-6.43-1.6-6.63-2.6-8.23,5.45-11.05-2.59,4.87-1.59,8.18-.45,13.15l9.08.09c1.38-4.52,2.32-8.48-.1-12.9.03-.18,1.78.49,2.02.6,5.58,2.31,3.94,5.38,2.71,10.92Z"/>
    <path class="cls-4" d="M34.99,38.67c-1.42,3.21-5.67,3.86-8.53,5.59-2-.84-4.79-1.95-6.14-3.58,3.65.79,12.54,1.41,14.67-2.01Z"/>
  </g>
  <g>
    <path class="cls-7" d="M29.58,50.03c-2.59,1.21-5.46,1.83-8.16,2.79l.21.09c-2.19.14-4-.35-4.73-2.45-.04-.13-.08-.26-.14-.38,2.78.1,5.69-.83,7.61-2.7.48.14,2.01.56,2.33.63-.23.78-2.11,3.05-2.19,3.23-.05.11-.1.17.03.16.51-.6,1.03-1.21,1.47-1.85.42-.6.84-1.46.89-1.54.56-.82,1.04-1.19,2.02-1.57.43,1.17.51,2.37.65,3.58Z"/>
    <path class="cls-10" d="M16.9,50.47c.73,2.1,2.54,2.59,4.73,2.45,1.08-.07,2.49-.35.38.38-2.25.77-4.66-.35-5.79-2.2.85-.08.23-.23.69-.63Z"/>
    <path class="cls-17" d="M26.91,48.02c-.05.07-.47.93-.89,1.54-.44.64-.96,1.25-1.47,1.85-.14.01-.09-.04-.03-.16.08-.19,1.96-2.45,2.19-3.23.06.01.14,0,.21,0Z"/>
  </g>
  <g>
    <path class="cls-2" d="M45.83,26.3c-.36,1.83-1.57,4.98-2.47,6.68-1.1,2.09-3.11,4.87-4.73,6.68-.03-1.95-1.02-4.89-2.26-6.47,1.23-5.54,2.87-8.61-2.71-10.92-.25-.1-1.99-.78-2.02-.6,2.42,4.41,1.48,8.38.1,12.9l-9.08-.09c-1.15-4.97-2.14-8.28.45-13.15-8.05,2.82-7.05,4.41-5.45,11.05-.05,0-.12-.02-.14.03-.83,2.16-1.76,4.38-1.99,6.68-.09.44-1.37-1.05-1.58-1.29-2.44-2.83-4.89-7.77-5.42-11.33-1.05-7.11,3.63-15.09,9.29-19.77,2.91-2.41,6.51-4.05,9.19-6.72,4.1,3.55,9.18,6.04,12.85,10.01,3.71,4.01,6.99,11.02,5.96,16.29Z"/>
    <g>
      <g>
        <path class="cls-5" d="M31.29,16.32c-.15-.15-.39-.15-.55-.28,1.85-.03.94-1.57-.27-.31.09-.95.19-2.21-.48-3.01-.91-1.1-4-1.27-5.21-.28,0-.28.67-.49.69-.53.08-.17,0-3.41-.07-3.8-1.72-3.88,5.36-3.68,3.43-.16,3.9,1.02,5.28,5.75,2.47,8.38Z"/>
        <path class="cls-13" d="M24.78,12.43c-1.19.97-.96,3.48-.41,4.71-.27-.19-.37-.09-.55-.19.1-.44.12-1.36-.41-1.57-.6-.24-1.03.28-.14.75-.01.04.19.16-.07.25-.3-.28-.6-.48-.82-.85-1.5-2.47-.36-6.82,3.02-7.44.07.39.15,3.62.07,3.8-.02.04-.68.25-.69.53Z"/>
      </g>
      <g>
        <path class="cls-7" d="M25.05,20.21c1.76.52,3.36-.1,4.32-1.51.01.52.07,1.02.07,1.54l.89.5c-1.16,2.15-2.35,4.27-3.32,6.5l-2.84-6.43.89-.6Z"/>
        <path class="cls-11" d="M29.3,18.2c.11.16.07.33.07.5-.96,1.41-2.56,2.03-4.32,1.51l.07-2.01c1.35,1.27,2.81,1.27,4.18,0Z"/>
        <g>
          <path class="cls-7" d="M31.29,16.32c.1.1.3.12-.21.44l-.65-.5c-.09.5-.34.76-.1.69-.38.4-.62.87-1.03,1.26-1.37,1.27-2.83,1.27-4.18,0-.13-.12-.17-.19-.27-.31.1-.04-.34-.66-.48-.75-.55-1.23-.78-3.74.41-4.71,1.21-.98,4.3-.81,5.21.28.67.81.57,2.06.48,3.01,1.22-1.25,2.12.29.27.31.16.13.4.13.55.28Z"/>
          <path class="cls-17" d="M23.82,16.95c-.83-.48-.57-.52-.62-.56.26-.09.05-.21.07-.25.01-.04.24.13.14-.75.53.21.52,1.12.41,1.57Z"/>
          <path class="cls-12" d="M31.09,16.76s-.11.26-.75.19c-.24.07.02-.19.1-.69l.65.5Z"/>
          <path class="cls-3" d="M24.85,17.89c-.26-.33-.3-.36-.48-.75.14.1.58.72.48.75Z"/>
          <path class="cls-14" d="M23.41,15.38c.1.88-.12.71-.14.75-.89-.48-.46-.99.14-.75Z"/>
        </g>
      </g>
    </g>
  </g>
</svg>