<?xml version="1.0" encoding="utf-8"?>
<!-- Generator: Adobe Illustrator 28.2.0, SVG Export Plug-In . SVG Version: 6.00 Build 0)  -->
<svg version="1.1" id="Warstwa_1" xmlns="http://www.w3.org/2000/svg" xmlns:xlink="http://www.w3.org/1999/xlink" x="0px" y="0px"
	 viewBox="0 0 64 64" style="enable-background:new 0 0 64 64;" xml:space="preserve">
<style type="text/css">
	.st0{fill:#5D554B;}
	.st1{fill:#52453C;}
	.st2{fill:#4E5048;}
	.st3{fill:#47554D;}
	.st4{fill:#3D3E35;}
	.st5{fill:#F3E9D7;}
	.st6{fill:#31312D;}
	.st7{fill:#72675C;}
	.st8{fill:#D2C4B7;}
	.st9{fill:#FDFAF7;}
	.st10{fill:#72522C;}
	.st11{fill:#61361A;}
	.st12{fill:#392818;}
	.st13{fill:#44240D;}
	.st14{fill:#0B0A09;}
	.st15{fill:#847658;}
	.st16{fill:#C0B39F;}
	.st17{fill:#CE757A;}
	.st18{fill:#AB4F65;}
	.st19{fill:#EEE3E3;}
	.st20{fill:#914A4F;}
	.st21{fill:#B15D5B;}
	.st22{fill:#706146;}
	.st23{fill:#8D363E;}
	.st24{fill:#D89790;}
	.st25{fill:#F7DDD0;}
	.st26{fill:#8A8262;}
	.st27{fill:#EEDCBC;}
	.st28{fill:#AA9F7D;}
	.st29{fill:#BDA591;}
	.st30{fill:#D8BDA7;}
	.st31{fill:#B19890;}
	.st32{fill:#5C4B34;}
	.st33{fill:#843F2F;}
	.st34{fill:#F1C4B1;}
	.st35{fill:#91583A;}
	.st36{fill:#B4846E;}
	.st37{fill:#4E1E12;}
	.st38{fill:#D6B19F;}
	.st39{fill:#221A18;}
	.st40{fill:#491313;}
	.st41{fill:#351C11;}
	.st42{fill:#C48A7D;}
</style>
<g>
	<g>
		<path class="st0" d="M16.7,54.1c0.3,0.1,1.4,1.7,1.5,1.7c0,0,0.2-0.4,0.2-0.4c0.5-0.2,0,0.6-0.2,0.6C18.1,56,16.8,54.4,16.7,54.1z
			"/>
		<path class="st1" d="M52.1,16.1c-0.2,0.5-1.1,1-0.5,1.6C51.5,18,50.6,17.1,52.1,16.1z"/>
		<path class="st1" d="M17.1,10.3c1,0.1,0.2,0,0,0.1c-1,0.4,0.7,1.4-0.1,1C16.5,11.2,16.5,10.5,17.1,10.3z"/>
		<path class="st2" d="M57.5,24.5c0.4,0-0.3,1.2-0.9,0.5c-0.4-0.5,0.3,0.2,0.6,0C57.5,24.9,57.4,24.5,57.5,24.5z"/>
		<g>
			<path class="st1" d="M31.5,6.1C32,6,32.6,7.5,32.7,7.9c0.1,0.8-0.5,1.1-0.1,0.6C32.6,7.6,32.2,6.8,31.5,6.1
				c-0.9,0.8-1.4,2.6-1.5,2.5C30,8.2,31.2,6.2,31.5,6.1z"/>
			<path class="st1" d="M31.2,7.3C31.9,7.4,32,8.2,32,8.7c0.4,0.2,0,0.2-0.1,0.1C31.8,8.7,32.1,7.9,31.2,7.3L31.2,7.3z"/>
		</g>
		<path class="st3" d="M6.7,24.8c0.2,0,0,0.3,0,0.4C6,26.4,6.3,24.8,6.7,24.8z"/>
		<path class="st1" d="M52.9,42.5c-0.4,0.5-0.6,0.6,0,1.1C52.8,43.8,51.8,42.9,52.9,42.5z"/>
		<path class="st4" d="M48.2,53.7l0.1,0C47.2,55.2,46.9,55,48.2,53.7z"/>
		<path class="st4" d="M57.4,39.5c0.6-0.1-0.3,0.2-0.6,0.8C56.5,40.2,57.2,39.6,57.4,39.5z"/>
		<path class="st5" d="M12.6,16.3c0.1,0.2,0.9,1,0.8,1.1L12.6,16.3z"/>
		<path class="st6" d="M7.2,39.8c0.1,0-0.1,0.4-0.1,0.4C6.5,40.8,6.9,39.7,7.2,39.8z"/>
		<path class="st4" d="M6.2,39.2c0.3-0.1,0.4,0.2,0.3,0.3C6.2,39.6,5.9,39.3,6.2,39.2z"/>
		<path class="st6" d="M46.7,11c0.1-0.1,0.5,0.3,0.3,0.4C46.9,11.4,46.5,11.1,46.7,11z"/>
		<path class="st6" d="M47.5,10.5c0.2-0.1,0.3,0.3,0.1,0.3C47.5,10.8,47.3,10.5,47.5,10.5z"/>
		<g>
			<path class="st7" d="M33.5,56.1c0.3,0.5-1,1-1,1.1l1,1.2c1.3-0.9,0.4,0,0.1,0.1c-0.4,0.1-1-1.1-1.3-1.3
				C32.3,57.1,33.2,56.8,33.5,56.1L33.5,56.1z"/>
			<g>
				<path class="st7" d="M33.7,56.8c0.9-0.1,0.1,0.9-0.3,0.7C33,57.4,33.4,56.8,33.7,56.8z"/>
				<path class="st8" d="M33.7,56.8c0.6,0-0.1,0.7-0.4,0.6C33.1,57.3,33.6,56.8,33.7,56.8z"/>
			</g>
		</g>
	</g>
	<g>
		<path class="st9" d="M13.3,29.2c0.5,1.9,2.2,4.2,3.2,6c0,0.2-0.3,0.4-0.6,0.5c-0.3,0.2-0.7,0.3-1,0.5c-2.2-1.8-2.5-4.9-2.1-7.5
			C13,28.8,13.2,29.1,13.3,29.2z"/>
		<path class="st10" d="M35.2,8c0,0,0,0.1,0.2,0.1c0,0.2-0.1,0.3-0.1,0.5c-2.1-1.3-4.9-0.7-6.6,0.9C28.8,9.3,29,9,28.8,8.9
			C30.8,7.4,32.7,6.8,35.2,8L35.2,8z"/>
		<path class="st9" d="M12.1,37.8L12,37.8c-4.3,0.5-5.2-0.7-0.8,1.3c0,0,0,0.1,0,0.1c-2-0.6-3.9-1.4-5.7-2.3
			C8,37.9,9.6,37.6,12.1,37.8L12.1,37.8z"/>
		<path class="st9" d="M52.6,39.3c0.8-0.6,1.9-1,2.8-1.4l-3.6-0.1c0,0,0,0-0.1-0.1c2.5,0.1,4.4,0,6.8-0.8
			C56.6,37.8,54.6,38.5,52.6,39.3z"/>
		<path class="st11" d="M42.2,48.3c-0.3,0.1-0.6,0.2-0.9,0.3v0.1c1.4,0,2.7,0.2,4.1,0.3c0,0,0,0,0.1,0.1c0,0,0,0.1,0,0.1
			c-0.3,0.1-3.9-0.3-4.7-0.3c-0.1,0-0.2,0-0.3,0l0.1-0.1c-0.3-0.1-0.4,0-0.1-0.1c0-0.1-0.2,0-0.3-0.1c0.4,0,0.8-0.2,1.2-0.3
			C41.6,48.6,41.9,48.2,42.2,48.3L42.2,48.3z"/>
		<path class="st11" d="M21.8,55.5c0-0.3-0.3-0.3,0.1-0.4C26.7,57.9,24.7,57.7,21.8,55.5z"/>
		<path class="st12" d="M39.4,12.4c-0.3-0.1-0.2,0-0.4,0.1c0,0-0.1,0-0.2-0.1c0.2-0.4,0.4-1.7,0.4-1.8C39.7,9.7,39.1,12.4,39.4,12.4
			z"/>
		<path class="st13" d="M21.5,54.7c0.2,0,0.4,0.3,0.4,0.3c-0.4,0.1-0.1,0.1-0.1,0.4c-0.3-0.2-0.4-0.3-0.7-0.6
			C21.2,54.8,21.4,54.7,21.5,54.7L21.5,54.7z"/>
		<path class="st5" d="M38.3,37c-0.2,0.6-0.5,1.2-0.5,1.9c-0.1,1.3,0.5,3,0.8,4.3c0,0-0.1,0.4-0.1,0.4c0,0-0.1,0.1-0.3,0.3
			c-0.1,0.2-0.9,1.2-0.9,1.2l-2.7-2.8c-0.7,0.6-1.3,1.2-1.9,1.8c-0.8,0.8-1.2,1.7-1.3,1.6c-0.1,0,0-0.7-0.5-0.5
			c-0.2,0-1.7,2.1-1.9,3c-0.1,0.4-0.1,0.6,0,1c-2.3-0.3-1.1-1-0.9-1.6c0.3-0.7,0.7-2.1,1-2.7c0.4-0.5,1.4-1.1,1.4-1.6
			c0.4,0.1,1.4,0.2,1.8,0.1c0.6-0.2,3.3-2.7,3.8-3.3C37,39.1,37.5,37.9,38.3,37L38.3,37z"/>
		<g>
			<path class="st14" d="M38.7,12.4c0.1,0,0.2,0.1,0.2,0.1v0.1c-0.8,1.5,0.3,1-0.1,3.7c-0.2,1.9-1.3,5-1.5,7.1
				c-0.1,0.3-0.1,0.3-0.3,0.4c-0.1-1.9,1.8-7.7,1.7-9c0,0-0.3-0.7-0.4-0.8c-0.2,2.6-1.9,8.1-2,9.8c0,0.2,0,0.3,0.1,0.4
				c-0.3,0.3-0.3,0.6-0.4,0.6c-0.2,0-0.2-0.4-0.4,0.2c-0.3,0.7-1,5-1.5,6.6c-0.3-0.2-0.9-0.2-0.9-0.5c1.7-5.8,3.1-11.7,4.6-17.5
				l-0.2-0.3C36,19.2,34.5,25.1,32.9,31l-0.2,0.2l-2.1-0.7c0-0.1-0.1-0.1-0.1-0.2c1.8-6.2,3.4-12.4,4.9-18.7c0,0,0.1-0.1,0.3-0.1
				c0.9,0.3,2.1,0.5,2.7,0.9C38.7,12.5,38.7,12.4,38.7,12.4L38.7,12.4z"/>
			<path class="st14" d="M38.8,10.2c-0.7-1.1-1.1-1.7-2.4-2.1c0.1-1.3-0.4-1-0.8,0.7l-0.1,0.1c-0.4-0.3-0.3-0.4-0.3-0.4
				c0-0.2,0.1-0.3,0.1-0.5c0-0.2,0.2-1,0.4-1.1c0.4-0.1,0.8,0.9,0.9-0.8c-0.2-0.2-0.4-0.2-0.6-0.3C39.1,6.4,38.6,7.6,38.8,10.2
				L38.8,10.2z"/>
			<path class="st14" d="M36,9.9c0.1,0,2.3,0.8,2.4,0.9c0.7,0.4,0.5,0.5,0.2,1.2l-3.7-1.1c-0.1-0.3-0.5-1.9,0-2.1
				c0.5-0.2,0,0.5,0.1,0.8c0.1,0.3,0.5,0,0.3,1.1C35.6,11,35.2,9.9,36,9.9L36,9.9z"/>
			<path class="st15" d="M38.8,10.2c0.1,0.1,0.3,0.3,0.3,0.4c0,0-0.6,0.2-0.7,0.2c-0.1-0.1-2.3-0.9-2.4-0.9c0-0.5,0.4-1.5,0.4-1.8
				C37.7,8.5,38.1,9.2,38.8,10.2L38.8,10.2z"/>
			<path class="st9" d="M36,5.8c0.2,0.1,0.5,0.1,0.6,0.3c-0.1,1.7-0.5,0.7-0.9,0.8c-0.1,0-0.3,0.9-0.4,1.1c-0.2,0-0.2-0.1-0.2-0.1
				c0.4-0.4,0.2-1.2,0.8-1.1c0.1-0.3-1.3-0.6-0.8-1.3C35.2,5.4,35.9,5.8,36,5.8L36,5.8z"/>
			<path class="st16" d="M34,31.6c0,0.1-0.1,0.3-0.1,0.4l-3.5-0.9c0.1-0.2,0.1-0.4,0.2-0.6l2.1,0.7l0.2-0.2
				c1.6-5.9,3.2-11.8,4.7-17.7l0.2,0.3c-1.5,5.8-2.9,11.7-4.6,17.5C33.1,31.4,33.8,31.4,34,31.6L34,31.6z"/>
			<path class="st17" d="M32.1,32.5c-0.2-0.2-0.6,0.5-0.6,0.6c0,0.1,1,0.1,1,0.4c-0.1,0-2.4-0.6-2.7-0.7c0-0.2,0.1-0.4,0.2-0.6
				c0.1-0.3,0.1-0.3,0.1-0.3C30.8,32,31.5,32.3,32.1,32.5L32.1,32.5z"/>
			<path class="st18" d="M29.6,31.9c0,0,0,0.1,0,0.1c-0.1,0.2-0.2,0.3-0.2,0.5c-0.2-0.1-0.3-0.2-0.6-0.2c0.1-0.3,0.2-0.5,0.2-0.6
				L29.6,31.9L29.6,31.9z"/>
			<path class="st19" d="M30,32.1c-0.1,0.2-0.2,0.4-0.2,0.6c-0.1,0-0.3-0.1-0.4-0.1c0-0.2,0.1-0.3,0.2-0.5L30,32.1L30,32.1z"/>
			<path class="st20" d="M37.1,23.7c-0.1,0.2-0.4,0.3-0.6,0.5c-0.2-0.1-0.2-0.3-0.1-0.4c0.2-1.7,1.9-7.2,2-9.8
				c0.1,0.1,0.4,0.7,0.4,0.8C38.9,16,37,21.7,37.1,23.7z"/>
			<path class="st21" d="M32.1,32.5c0.1,0,0.8,0.1,0.9,0.2c0,0-0.1,0.7-0.5,0.7c0-0.2-0.9-0.3-1-0.4C31.5,33,31.9,32.3,32.1,32.5z"
				/>
			<g>
				<path class="st14" d="M33.9,32c-0.1,0.2-0.1,0.3-0.3,0.4c-0.1,1.2-0.6,1.3-0.7,1.9l-0.1,4.4c-1.4,1.4-2.6,2.3-2.2,4.5
					c-0.1,0.6-1.1,1.1-1.4,1.6c-0.4,0.5-0.8,2-1,2.7c-0.3,0.7-1.4,1.4,0.9,1.6c-0.1-0.4-0.1-0.6,0-1c0.1,0.5,0.1,0.5,0.3,0.9
					c0.4,0.6,1.9,1.7,2.6,2c0.1,0,0.2,0.1,0.3,0.1c2.3,0.9,6.1,0.6,7.2-0.6c0,0.1,0.1,0.1,0.1,0.1c0.1,0.1,0.4,0.5,0.4,0.5
					c0,0.1-1.4,0.8-1.6,0.9c-2,0.8-4.8,0.7-6.8-0.3c-1.3-0.7-2-1.9-2.8-2c-2.2,0.4-5.5,1.4-7,3c-0.2,0.3-0.2,0.3-0.2,0.3
					c-0.3,0.4-0.9,1.3,0.1,1.5v0.1c-0.1,0-0.3,0-0.3,0.1c-0.5-0.5-0.9-0.6-0.8-1.3c0.2-1.3,2.7-3,3.9-3.5c1.4-0.6,3-0.8,2.1-0.9
					l0.4-0.2c0.2,0,0.3,0.1,0.5,0c0.1-0.1-0.1-1.3-0.1-1.6c0-0.2,0-0.4,0-0.5c0-1.5-0.1-3-0.3-4.5c2.1-2.8,0.2-4,0.3-5
					c0.5-1.4,1.3-3.3,1.7-4.7c0,0-0.1-0.1-0.1-0.2c0.2,0,0.4,0.1,0.6,0.2c0.1,0,0.3,0.1,0.4,0.1c0.3,0.1,2.6,0.7,2.7,0.7
					c0.3,0,0.5-0.7,0.5-0.7c0-0.1-0.8-0.2-0.9-0.2c-0.6-0.2-1.3-0.4-1.9-0.6c0.1-0.3,0.1-0.5,0.2-0.8L33.9,32L33.9,32z"/>
				<g>
					<path class="st22" d="M28.4,43.1c0-0.4,0.2-0.9,0.3-1.3c1.1,0.8,1-1.6,1.3-1.9c0.1-0.1,0.6,0.1,0.7,0.1
						c0.1,0.2-0.8,1.3-0.4,3.3C28.8,44.5,29.3,43.5,28.4,43.1z"/>
					<g>
						<path class="st21" d="M31.6,33.6c-0.2,1.7-0.6,3.3-0.6,5c-0.6-0.2-1.2-0.5-1.8-0.7c0.1-1.7,0.9-3.2,1-4.9
							C30.8,33.2,31.2,33.4,31.6,33.6z"/>
						<path class="st23" d="M31.1,38.6c0-1.7,0.4-3.4,0.6-5c0.1,0,0.5,0.1,0.9,0.3c0,0.9-0.1,4.4-0.2,4.7
							C32.1,39.1,31.4,38.7,31.1,38.6z"/>
						<path class="st24" d="M30.3,33.1c-0.2,1.7-1,3.2-1,4.9c-0.3-0.1-0.5-0.2-0.8-0.3l1.3-4.8C30,32.9,30.1,33,30.3,33.1L30.3,33.1
							z"/>
						<path class="st25" d="M29.8,32.9l-1.3,4.8c-0.3-0.1-0.8-0.1-0.8-0.4c0-0.2,1.5-3.9,1.6-4.5C29.5,32.7,29.6,32.8,29.8,32.9
							L29.8,32.9z"/>
					</g>
					<path class="st9" d="M28.5,39.3c0,0.1,0,1.5,0,1.7c0,0.2-0.7,1.8-0.6,2.6c-0.5,0.1-0.7-0.7-0.6-1.2c0-0.2,0.8-1.4,0.9-1.7
						C28.3,40.2,28.3,38.2,28.5,39.3L28.5,39.3z"/>
					<path class="st26" d="M28.7,45.2c-0.4,1-0.5,1.9-1.1,1.7c-0.1-0.7,0.3-2,0.3-2.4L28.7,45.2L28.7,45.2z"/>
					<path class="st22" d="M28.7,45.2l-0.8-0.7c0-0.1-0.1-0.3-0.1-0.5c0.4-0.1,0.8-0.7,1.2-0.3C29.4,44.2,28.8,44.7,28.7,45.2
						L28.7,45.2z"/>
					<path class="st22" d="M28.7,41.2c0-0.1,0-0.2-0.1-0.2c0-0.2,0-1.6,0-1.7c0.1,0,1,0.3,1,0.3C29.5,39.7,29.1,41.4,28.7,41.2
						L28.7,41.2z"/>
					<path class="st27" d="M28.6,38.8l0.5-0.5c0.8,0.3,1.6,0.6,2.5,0.9C31.7,39.6,28.8,38.9,28.6,38.8L28.6,38.8z"/>
					<path class="st28" d="M28.7,41.2c0,0.1,0,0.4,0,0.5c0,0.4-0.3,0.9-0.3,1.3c0,0.2-0.2,0.4-0.4,0.5c-0.1-0.8,0.5-2.4,0.6-2.6
						C28.6,41,28.6,41.1,28.7,41.2L28.7,41.2z"/>
					<path class="st9" d="M27.7,44c0.1,0.1,0.1,0.3,0.1,0.5c0,0.3-0.4,1.7-0.3,2.4c0,0-0.1,0-0.1,0C27.5,45.5,27.2,43.1,27.7,44
						L27.7,44z"/>
					<path class="st9" d="M29.1,38.2l-0.5,0.5c-0.8-0.3-0.5-0.3-0.9-1C27.7,37.7,28.9,38.2,29.1,38.2L29.1,38.2z"/>
				</g>
			</g>
		</g>
		<g>
			<path class="st9" d="M17.7,23.1c0,0.4,0.4,2.1,0.3,2.2c-1.4,1-3.2,3.6-3.4,3.7c0,0-0.1,0.1-0.1,0.1c-1.4,0.2,0.2-1.4,0.2-2
				L13.5,29c-0.2-0.2-0.4-0.4-0.6-0.5c-0.3-0.3-1.1-1.2-1.5-1.3c-5,0-4.7,0.7-1.4-1.7c1.1-0.8,2.1-1.7,3.2-2.5
				c0-0.1-0.1-0.2-0.1-0.3c0.5-1.3,0.9-3.8,1.1-3.9c0.1-0.1,0.2,0,0.3,0.1c0.1,0.2,1,3,1.2,3.6c-1.6,1.5-1.9,0.9-2.3,1
				c-0.3,0.1-3.7,2.8-4.3,3.2c0,0.2,1.9-0.1,2.2,0c0.8-0.9,2.1-1.5,2.6-2.7C15.3,24.1,16.7,24.4,17.7,23.1z"/>
			<g>
				<path class="st8" d="M15.1,25.7c0.1,0.2,0.3,0.4,0.5,0.6c0,0,0.2,0.1,0.2,0.2c-0.1,0.3-3.4,0.4-3.9,0.2c1.6-1.4,1.1-0.9,3-0.2
					C15,26.4,15.1,25.9,15.1,25.7L15.1,25.7z"/>
				<path class="st8" d="M15.6,26.3c-0.2-0.2-0.3-0.4-0.5-0.6c0.1-0.2,0.1-0.6,0.2-0.7c0.1-0.1,2-0.8,2.4-1
					C17.2,24.9,15.1,25,15.6,26.3L15.6,26.3z"/>
				<path class="st8" d="M14.4,19.8c0,0.3,0.6,2,0.4,2.1C13.6,21.7,14.2,21.4,14.4,19.8z"/>
				<path class="st8" d="M14,24.5c0.1,0,1.1,0.5,1.1,0.6c0,0.1-0.1,0.5-0.1,0.5C14.9,25.7,13.3,24.8,14,24.5L14,24.5z"/>
				<path class="st29" d="M14.5,29.1L14.5,29.1c-0.2,0.1-0.5,0.1-0.7,0.1c-0.1-0.1-0.2-0.1-0.3-0.2l1.2-1.8
					C14.7,27.7,13.1,29.3,14.5,29.1L14.5,29.1z"/>
			</g>
		</g>
		<g>
			<path class="st9" d="M51.3,28.5C51.2,28.4,51,28.1,51,28c0,0,0-0.1-0.1-0.1c-0.1,0.2,0,0.2,0,0.2c0,0.3,0.2,0.7,0.1,0.8
				c0,0.1-0.3,0.2-0.3,0.2L50.1,29c0-0.2-0.1-1.5-0.2-1.6c-0.1,0-0.5,0.4-0.5,0.4c-0.2,0-2.3-2.2-2.7-2.5c0-0.1,0.2-0.9,0.2-1
				c1.6,1.5,2.4,0.9,1.8,2.5l3.8,0l-1.1-1.1l-1.8,0.7c-0.6-2-0.5-1.5-2.7-2.3c0-0.4,0.1-0.9,0.1-1.3c-0.1,1.6,2.2,1.3,3.4,1.1
				l2.8,2.7l2.2,0c-1.1-0.7-3.2-2.4-4.1-2.9c-0.9-0.5-1.5-0.3-2.6-1.4l1.5-3.9c0.4,1.5,1,3,1.2,4.5c1.7,1.5,3.6,2.8,5.5,4.1l-3.9,0
				L51.3,28.5L51.3,28.5z"/>
			<path class="st8" d="M46.9,24.3c0,0,0-0.1,0-0.2c2.1,0.8,2.1,0.3,2.7,2.3l1.8-0.7l1.1,1.1l-3.8,0C49.3,25.2,48.5,25.7,46.9,24.3
				L46.9,24.3z"/>
			<path class="st8" d="M50.1,19.9l0.3,2.1C49.3,21.6,49.9,21.4,50.1,19.9z"/>
			<path class="st30" d="M50.5,24.5c0,0,0.3,0.3,0.3,0.4c0,0.1-1.1,0.7-1.2,0.6c0,0-0.2-0.5-0.2-0.5C49.4,24.9,50.5,24.5,50.5,24.5
				L50.5,24.5z"/>
			<path class="st31" d="M51,28L51,28c-0.1,0.1-0.2,0.1-0.1-0.1C51,28,51,28,51,28L51,28z"/>
		</g>
		<path class="st8" d="M19,49.1c-1.1-0.8-3-2.2-3.4-3.4c2.7,1.5,6.1,2.5,9,3.3C24,49,19.3,48.9,19,49.1L19,49.1z"/>
		<g>
			<path class="st9" d="M15.7,45.7c0.3,1.2,2.3,2.7,3.4,3.4c0,0,0,0.1-0.1,0.1c-1.1,0-2.3,0.3-3.4,0.2l-3.7,3.1
				c0.9,0.3,3.1-1.9,3.3-1.9c0.6-0.1,0.7,0.9,1.9-0.9l0.8,1.6c-0.6,0.6-1.2,0.8-0.8,1.7c0.9-0.6,1.2-1.8,1.7-0.9
				c-0.4,0.3,0.2,1,0.3,1.5L17,55l-3.2-2l-3.4,0c1.5-1.4,3.3-2.5,4.7-4c-0.6-0.2,0.3-2.2,0.4-3.4C15.6,45.6,15.6,45.7,15.7,45.7
				L15.7,45.7z"/>
			<path class="st8" d="M15.4,51.3c0.2,0.2,1.4,1.8,1.4,1.9c0,0.1-0.3,0.5-0.4,0.5c-0.1,0-0.6-0.9-0.6-0.9c-0.1,0,0.1,0.5-1.8-0.4
				L15.4,51.3z"/>
			<path class="st8" d="M15.8,46.6c0.6,1.5,2,2.3-0.2,1.6L15.8,46.6z"/>
			<path class="st30" d="M18,52.7c0,0.4,0.1,0.7,0.1,0.7C18,53.6,15.7,55.2,18,52.7z"/>
			<path class="st30" d="M17,50.7l0.2,0.6C16.4,52.7,16.1,51.5,17,50.7z"/>
		</g>
		<g>
			<path class="st32" d="M48.5,52.7c-0.2,0.2-0.3,0.4-0.6,0.5c0-0.1-0.2,0,0.1-0.4c0,0,0,0,0.1-0.1C48.7,52.1,49.7,51.5,48.5,52.7
				L48.5,52.7z"/>
			<path class="st8" d="M45.6,49.1c1.1,0.1,2.3,0.3,3.4,0.3c1.3,1,2.6,2,4,3.1c-1.5,0.5-3.3-1.9-3.7-1.9c0,0-0.8,0.3-0.8,0.4
				l-0.8-1.4c-0.2,0-1,1.5-1.2,1.7c0,0-0.4,0.3-0.5,0.3c-0.6-0.7-3.3-2-4.2-2.3c-0.4-0.1-1-0.1-1-0.3c0.8,0,4.4,0.4,4.7,0.3
				C45.6,49.2,45.6,49.2,45.6,49.1L45.6,49.1z"/>
			<path class="st8" d="M48.5,52.7c1.2-1.3,0.2-0.6-0.3,0c-0.4-0.3,0.8-1.4,1-1.3l1.4,1c-0.3,0.1-1.7,0.9-1.8,0.8
				C48.8,53,48.7,52.8,48.5,52.7z"/>
			<g>
				<path class="st9" d="M47.9,53.3c0.3-0.1,0.4-0.3,0.6-0.5c0.2,0.1,0.3,0.3,0.3,0.5c0.1,0.1,1.5-0.7,1.8-0.8l-1.4-1
					c-0.2,0-1.4,1.1-1,1.3C48,52.8,48,52.9,48,52.9c-0.5-0.3-1-1-1.4-1.5c0,0,0-0.1-0.1-0.1c0.2-0.2,1-1.7,1.2-1.7l0.8,1.4
					c0.1-0.1,0.8-0.4,0.8-0.4c0.4,0,2.1,2.5,3.7,1.9c-1.3-1-2.6-2-4-3.1c-1.1-0.1-2.3-0.2-3.4-0.3c-0.2,0-0.1-0.1-0.1-0.1
					c1.8-0.5,2.7-1.9,3.4-3.5c-0.1,0.5,1.1,3,1.1,3.1c0,0.2-0.4,0.3-0.4,0.4c0,0.3,4.3,3.3,4.8,3.8l-3.7,0l-2.4,1.9H48l-1.8-1.2
					l0.9-1.1l0.6,1C47.9,53.4,47.8,53.3,47.9,53.3L47.9,53.3z"/>
				<path class="st8" d="M47.3,50.7c0.1,0,1.3,1.5,0.6,1.5c-0.2,0-0.9-1-0.9-1C47,51,47.3,50.7,47.3,50.7L47.3,50.7z"/>
				<path class="st8" d="M48.7,46.9c0,0.3,0.4,1.5,0.1,1.6C47.5,48.4,48,48.3,48.7,46.9z"/>
			</g>
		</g>
		<g>
			<path class="st9" d="M23.6,15.5c-1.8-0.3-3.5,1.5-4.6,2.8c-0.6-0.3-0.6-1.6-1.1-2c-1.8-1.2-3.5-2.5-5.1-4l0.1-0.1
				c0.8,0.3,4.5,3.4,4.8,3.5c0,0,0.1,0,0.2,0l-0.3-0.7c1.5,0.1,1.2,1.1,1.7,0.1c0.5,0.1,1.9,0.2,2.2-0.1c0-0.1-2.2,0-2.6,0
				c-0.9-0.2-1.8-0.4-2.6-0.6c1.9,0,3.2-1.7,4.6-2.8c0.2,0,0.1,2.2,1.9,3.6C23.2,15.2,23.5,15.2,23.6,15.5L23.6,15.5z"/>
			<path class="st29" d="M19.4,15c-0.4-0.1-0.3-0.1-0.3-0.1c0.3,0.1,2.5-0.1,2.6,0C21.3,15.2,19.9,15.1,19.4,15z"/>
			<path class="st8" d="M20.9,13.3c-0.4-0.5-0.7,0.7-1.3,0.8c-0.2,0-0.5,0.1-0.6-0.1l1.7-1.4C20.7,12.7,20.9,13.2,20.9,13.3
				L20.9,13.3z"/>
			<path class="st8" d="M20.9,13.3c0.1,0.3,0.1,0.5,0.2,0.8L21,14.2c-0.5,0-1,0-1.4-0.1C20.2,14,20.5,12.8,20.9,13.3L20.9,13.3z"/>
		</g>
		<g>
			<path class="st5" d="M26.4,49.2c0.9,0.1-0.7,0.3-2.1,0.9c-1.2,0.5-3.7,2.2-3.9,3.5l-0.8-0.8l1-0.2l-2.1-1.3
				c0.8-0.3,1.5-0.5,2.2-0.8c0.8-0.4,1.7-0.8,2.5-1.2C24.2,49.2,25.3,49.1,26.4,49.2L26.4,49.2z"/>
			<path class="st5" d="M40.5,49c0.1,0,0.2,0,0.3,0c0,0.2,0.6,0.2,1,0.3c0.8,0.3,3.6,1.6,4.2,2.3c-1.7,1.3-8.8,4-11.3,5.6
				c-0.2,0-1.6-0.4-1.9-0.5c-3.2-1-7.3-3.4-11.2-3.9c1.5-1.6,4.8-2.6,7-3c0.8,0.1,1.4,1.3,2.8,2c1.9,1,4.7,1,6.8,0.3
				c0.2-0.1,1.5-0.8,1.6-0.9c0,0-0.3-0.4-0.4-0.5l1-1.7C40.4,48.8,40.4,49,40.5,49L40.5,49z"/>
			<path class="st5" d="M31.5,56.6c0.6,0.2,1.2,0.5,1.8,0.7c-3-0.4-5.6-1.9-8.5-2.6c-1.2-0.2-3-0.1-3.4-0.1c-1-0.2-0.4-1-0.1-1.5
				C24.9,53.8,28.2,55.3,31.5,56.6z"/>
			<path class="st33" d="M32.8,56.8c0.2,0.6-1-0.3-1.3-0.1c-3.3-1.3-6.5-2.9-10.1-3.5c0,0,0,0,0.2-0.3
				C25.5,53.4,29.6,55.8,32.8,56.8z"/>
			<g>
				<path class="st11" d="M46.5,51.3c0.1,0,0.1,0.1,0.1,0.1c-1,1.4-2.7,3.5-4,4.6c-4,3.1-6.7,1.6-11.3,1.3c-3.5-0.8-6.1-2.4-9.8-2.6
					v-0.1c0.4,0.1,2.2-0.1,3.4,0.1c2.9,0.7,5.5,2.2,8.5,2.6c-0.6-0.2-1.2-0.4-1.8-0.7c0.3-0.1,1.5,0.8,1.3,0.1
					c0.3,0.1,1.7,0.5,1.9,0.5c2.5-1.6,9.6-4.3,11.3-5.6C46.1,51.5,46.5,51.3,46.5,51.3z"/>
				<path class="st5" d="M45.8,51.8c-2.5,3.4-5.9,6.8-10.5,5.5C38.7,55.3,42.6,54.1,45.8,51.8z"/>
			</g>
		</g>
		<path class="st8" d="M12,37.8c-0.2,0.4-0.7,0.9-0.8,1.3C6.8,37.1,7.7,38.4,12,37.8z"/>
		<g>
			<path class="st9" d="M45.6,18.4c-1.1-1.3-1.5-1.5-3-2.1c0-0.3,0.3-0.6,0.3-0.9c0.2-0.5,2-0.1,2.5,0.1c1.7-1,0.9,0.3,1.3,0.4
				c0.1,0,1.3-1.1,1.5-1.2c1.1-0.8,2.3-1.5,3.4-2.4c0,0,0,0.1,0,0.2c-0.1,0.3-4.7,4-5,4.1c0,0-0.5-0.2-0.6-0.1
				C46.6,17.2,46.2,17.4,45.6,18.4L45.6,18.4z"/>
			<path class="st8" d="M47.9,14.4c0,0,0.2-0.1,0.3,0.1c-0.2,0.2-1.4,1.2-1.5,1.2c-0.4-0.1,0.4-1.4-1.3-0.4
				c-0.5-0.2-2.3-0.5-2.5-0.1C42.9,15,43,15,43,15c0-0.1-0.2-0.1-0.3-0.2C44.4,14.7,46.1,14.7,47.9,14.4L47.9,14.4z"/>
			<g>
				<path class="st9" d="M47.9,14.4c-1.7,0.3-3.4,0.3-5.2,0.4c-0.1-0.1-0.3-0.1-0.3-0.2c0-0.2,1.2-1.3,1.3-3.2
					C44.9,12.7,46.2,13.7,47.9,14.4L47.9,14.4z"/>
				<path class="st8" d="M44,12.7l1.7,1.3C43.3,14.3,43.2,14.7,44,12.7z"/>
			</g>
		</g>
		<path class="st8" d="M52.6,39.3c-0.1-0.3-0.5-1.2-0.8-1.5l3.6,0.1C54.5,38.3,53.5,38.7,52.6,39.3z"/>
		<g>
			<path class="st34" d="M50.8,29.2c-0.8,1.1-2.9,2.5-3.9,3.5c0,0-0.1-0.1-0.1-0.1c0-0.4,2.3-2.8,2.6-3.3c0.2,0,0.4,0,0.6,0
				c0.1,0,0.1,0,0.2,0c0.2-0.1,0-0.1,0-0.2L50.8,29.2L50.8,29.2z"/>
			<path class="st35" d="M49.1,29c0.2,0.2,0.8-0.1,0.8,0.2c-0.1,0-0.4,0-0.6,0c-4.2,0.3-7,1.7-9.4,5.1l-0.1-0.1c2.2-3,4-4.3,7.7-5
				C48,29.1,48.8,29.1,49.1,29z"/>
			<path class="st34" d="M49.3,29.2c-0.4,0.5-2.6,3-2.6,3.3c0,0,0.1,0.1,0.1,0.1c-4.2,4-5.2,5.9-8.2,10.5c-0.3-1.3-0.9-3-0.8-4.3
				c0.4,0.1,0.2-0.7,0.4-1.3c0.3-1,1.1-2.4,1.7-3.3C42.4,31,45.1,29.5,49.3,29.2L49.3,29.2z"/>
			<path class="st36" d="M39.9,34.3c-0.6,0.8-1.4,2.3-1.7,3.3c-0.2,0.6,0,1.4-0.4,1.3c0-0.6,0.3-1.3,0.5-1.9
				c0.4-1.3,0.8-1.7,1.6-2.8L39.9,34.3L39.9,34.3z"/>
		</g>
		<g>
			<path class="st10" d="M28.7,9.4c-1,1.3-3.5,2.6-3.9,6.7c-0.3,0.2-1-0.3-2-0.2c-1.4,0.2-3.1,1.9-3.8,3c-1.8,2.6-0.7,3.6-0.6,6.6
				c-1.2,0.9-2.3,2.1-3.2,3.3c-0.3,0.4,0,0.5-0.6,0.3c0.2-0.1,2-2.8,3.4-3.7c0-0.1-0.3-1.9-0.3-2.2c-0.2-2.4-0.2-2.8,1.4-4.8
				c1-1.3,2.7-3,4.6-2.8c0.1,0,0.7,0.4,0.8,0.3c0.1-2.6,2.3-5.3,4.4-6.9C29,9,28.8,9.2,28.7,9.4z"/>
			<path class="st10" d="M45.6,18.4c1.7,2,1.6,2.5,1.4,4.4c0,0.4-0.1,0.9-0.1,1.3c0,0.1,0,0.2,0,0.2c0,0.1-0.2,0.9-0.2,1
				c0.3,0.3,2.5,2.5,2.7,2.5c0,0,0.4-0.4,0.5-0.4c0.1,0.1,0.2,1.4,0.2,1.6c0,0.1,0.1,0.1,0,0.2c-0.1,0-0.1,0-0.2,0
				c0-0.3-0.6,0-0.8-0.2c0.2,0,0.4-0.1,0.6-0.2c0.1-0.2-2.9-3-3.4-3.3c0-1.2,0.5-3.3,0.5-3.9c0-1.8-2-3.9-3.5-4.9
				c-0.5-0.3-0.8-0.2-0.8-0.6c0,0,0,0,0.1,0C44,16.8,44.5,17.1,45.6,18.4L45.6,18.4z"/>
			<g>
				<path class="st9" d="M36.4,8.1c0,0.3-0.4,1.4-0.4,1.8c-0.7-0.1-0.3,1.1-0.8,0.8c0.3-1.1-0.2-0.8-0.3-1.1
					c-0.1-0.2,0.4-0.9-0.1-0.8c-0.5,0.1,0,1.7,0,2.1c0,0-0.1,0.1-0.1,0.4c0.8,0.2,0.6,0.3,0.6,0.3c-1.5,6.3-3.2,12.5-4.9,18.7
					c0,0.1,0.1,0.1,0.1,0.2c-0.1,0.2-0.1,0.4-0.2,0.6c-0.1,0.3-0.1,0.6-0.2,0.8c0,0,0,0-0.1,0.3l-0.4-0.1c0,0,0-0.1,0-0.1
					c0.1-0.2,0.4-1,0.3-1.1c0-0.1-0.4-0.1-0.5-0.4c-0.1,0-0.3,1.3-0.4,1.4c0,0.1-0.1,0.3-0.2,0.6c0,0.2,0.1,0.2,0.1,0.2
					c-0.4,1.4-1.2,3.3-1.7,4.7c-0.1,1,1.8,2.2-0.3,5c0.2,1.5,0.2,3,0.3,4.5c-0.2-0.1-0.3-0.4-0.3-0.6c-0.7-2-0.2-4.6-1.1-8.1
					c-1.1-4.1-3.7-7.5-8-8.7c-1.1-0.3-2.8-0.3-2.5-0.7c0.9-1.2,2-2.3,3.2-3.3c-0.2-3-1.3-4,0.6-6.6c0.8-1.1,2.4-2.8,3.8-3
					c1-0.1,1.7,0.3,2,0.2c0.3-4,2.9-5.3,3.9-6.7c1.7-1.6,4.5-2.3,6.6-0.9c0,0,0,0.1,0.3,0.4l0.1-0.1C36,7.1,36.5,6.8,36.4,8.1
					L36.4,8.1z"/>
				<g>
					<path class="st35" d="M25.8,38.2c-0.2-0.1,0-0.6-0.4-0.5c-1.2-5.1-5.6-8.2-10.8-8.5v-0.1c0,0,0.1,0,0.1-0.1
						c0.7,0.3,0.3,0.1,0.6-0.3c-0.3,0.3,1.3,0.4,2.5,0.7C22.1,30.6,24.7,34,25.8,38.2L25.8,38.2z"/>
					<g>
						<path class="st14" d="M34.4,11.3c0,0,0.6,0.1,0.6,0.2c0,0.1-0.5,2-0.6,2.3c-1.3,5.5-3,11-4.4,16.4c-0.1,0.2-0.6,0-0.6-0.1
							c-0.1-0.2,0.7-2.8,0.8-3.2C31.6,21.7,33.1,16.5,34.4,11.3z"/>
						<path class="st14" d="M29.6,31.9l-0.6-0.1c0-0.2,0.3-1.4,0.4-1.4c0.1,0.4,0.5,0.3,0.5,0.4C30,30.9,29.7,31.7,29.6,31.9z"/>
					</g>
					<g>
						<path class="st37" d="M24.3,17.4c0.1,0,0.5,0.9,0.5,1C24.7,18.5,22.8,19,24.3,17.4z"/>
						<path class="st37" d="M22.1,28.5c0.3,0,0.7,1.4-0.3,1.1C21.2,29.5,21.9,28.5,22.1,28.5z"/>
					</g>
				</g>
			</g>
			<g>
				<path class="st10" d="M39.4,12.4c0.9,1.1,1.7,2.3,2.3,3.5c0.1,0.1,0.5,0.2,0.8,0.3c0,0.4,0.3,0.3,0.8,0.6l-1.7-0.4l-0.2-0.2
					c-0.5-1.4-1.4-2.6-2.4-3.7v-0.1C39.2,12.4,39.1,12.3,39.4,12.4z"/>
				<path class="st9" d="M43.2,16.8c1.5,0.9,3.6,3.1,3.5,4.9c0,0.6-0.5,2.7-0.5,3.9c0.5,0.3,3.5,3.1,3.4,3.3
					C49.5,29,49.3,29,49.1,29c-0.3,0.1-1.1,0.1-1.6,0.1c-3.7,0.7-5.5,2.1-7.7,5c-0.8,1.1-1.1,1.5-1.6,2.8c-0.8,0.9-1.3,2.1-2.1,3
					c-0.5,0.6-3.3,3.2-3.8,3.3c-0.4,0.1-1.3,0.1-1.8-0.1c-0.4-2.2,0.8-3.1,2.2-4.5l0.1-4.4c0.1-0.5,0.6-0.7,0.7-1.9
					c0.1-0.2,0.2-0.2,0.3-0.4c0-0.1,0.1-0.3,0.1-0.4c0.5-1.6,1.2-5.9,1.5-6.6c0.2-0.6,0.2-0.2,0.4-0.2c0.1,0,0.1-0.3,0.4-0.6
					c0.2-0.2,0.5-0.3,0.6-0.5c0.1-0.2,0.2-0.1,0.3-0.4c0.2-2.1,1.3-5.1,1.5-7.1c0.3-2.6-0.7-2.2,0.1-3.7c1,1.1,1.9,2.3,2.4,3.7
					l0.2,0.2L43.2,16.8L43.2,16.8z"/>
				<path class="st37" d="M41.2,17.3c1.2,1.5-0.5,1.5-0.6,1C40.6,18.3,41.1,17.4,41.2,17.3z"/>
			</g>
		</g>
		<g>
			<path class="st33" d="M11.7,39c0,0.1,0,0.1-0.1,0.1c-0.1,0.5-0.2,0.8-0.1,1.3c0,0,0,0.1,0,0.1c0.5,4.6,11.4,8.2,15.3,8.5
				l-0.4,0.2c-1.1-0.1-2.2,0-3.3,0.1c-1.3,0-2.7,0-4,0.1c-0.1,0,0-0.1,0-0.1c0.1,0,0.1-0.1,0.1-0.1c0.2-0.2,5-0.1,5.7-0.1
				c-2.9-0.8-6.4-1.8-9-3.3c-0.1,0-0.1-0.1-0.1-0.1c-2.2-1.3-4.8-3.6-4.3-6.4c0,0,0-0.1,0-0.1c0.1-0.4,0.5-0.9,0.8-1.3l0.1-0.1
				c0.9-0.6,1.9-1.1,2.8-1.6c0.3-0.2,0.7-0.3,1-0.5C14.9,37.2,12.3,37.2,11.7,39z"/>
			<path class="st25" d="M12.4,39.2c3.4,1.3,5.4,2.3,8.6,4.1l-9.5-2.9c0-0.5,0-0.8,0.1-1.3C11.9,39.1,12.2,39.2,12.4,39.2L12.4,39.2
				z"/>
			<g>
				<path class="st38" d="M25.8,38.2c0.9,3.5,0.4,6.1,1.1,8.1c-0.4-0.3-0.7-1.3-1-1.8c-0.1-2.1-0.1-4.8-0.6-6.8
					C25.7,37.6,25.5,38.1,25.8,38.2z"/>
				<path class="st25" d="M14.5,29.2c5.2,0.3,9.7,3.4,10.8,8.5c0.5,2,0.5,4.7,0.6,6.8c-4.1-8.6-5-9-12.1-15.3
					C14,29.2,14.3,29.2,14.5,29.2L14.5,29.2z"/>
			</g>
			<g>
				<path class="st25" d="M27.2,47.4c0,0.2,0.2,1.4,0.1,1.6c-0.2,0.1-0.3,0-0.5,0c-3.9-0.3-14.8-3.9-15.3-8.5
					c4.8,1.5,9.6,2.7,14.2,4.7L25,44.6c-0.1,0-0.1,0.2-0.2,0.1c-1-0.4-2-0.7-2.9-1.1c-3.1-1.4-6.1-3.7-9.5-4.4
					c-0.3-0.1-0.5-0.2-0.8-0.3c0.7-1.8,3.2-1.8,4.3-3.3c0.2-0.1,0.6-0.3,0.6-0.5c-1-1.8-2.8-4.1-3.2-6c0.7,0.9,4.7,4,6.6,6
					C24.1,39.7,24,42.6,27.2,47.4L27.2,47.4z"/>
				<g>
					<path class="st33" d="M12.9,28.4c0.2,0.2,0.4,0.4,0.6,0.5c0.1,0.1,0.2,0.1,0.3,0.2c7.1,6.3,8,6.7,12.1,15.3
						c0.2,0.5,0.6,1.5,1,1.8c0.1,0.2,0.1,0.5,0.3,0.6c0,0.2,0,0.4,0,0.5c-3.2-4.8-3.2-7.7-7.4-12.2c-1.9-2-5.8-5.2-6.6-6
						c0-0.1-0.3-0.4-0.3-0.5C12.8,28.6,12.6,28.4,12.9,28.4L12.9,28.4z"/>
					<path class="st34" d="M11.5,40.5c0,0,0-0.1,0-0.1l9.5,2.9c-3.2-1.8-5.1-2.8-8.6-4.1c3.4,0.7,6.4,3,9.5,4.4
						c0.9,0.4,1.9,0.7,2.9,1.1c0.1,0.1,0.1-0.2,0.2-0.1l0.7,0.6C21.1,43.2,16.2,42,11.5,40.5L11.5,40.5z"/>
					<path class="st34" d="M12.4,39.2c-0.3-0.1-0.6-0.1-0.8-0.1c0-0.1,0-0.1,0.1-0.1C11.9,39,12.2,39.1,12.4,39.2z"/>
					<path class="st38" d="M17.6,33.5c0.6,1.1,1.1,2.9,1.8,3.9c0.8,1.2,3.4,2.8,4.7,4.8c0.9,1.3-0.7-0.7-1.2-1.2
						C20.1,38.1,19.1,38.5,17.6,33.5L17.6,33.5z"/>
					<path class="st34" d="M24.4,44.1c-1.8-1.3-3.6-2.6-5.5-3.8C20.8,41.3,22.8,42.6,24.4,44.1z"/>
					<path class="st34" d="M24.4,44.1c0,0,0.5,0.2,0.4,0.5C24.6,44.4,24.5,44.2,24.4,44.1z"/>
				</g>
			</g>
		</g>
		<g>
			<path class="st17" d="M38.7,49.6c0,0.1,0,0.1,0.1,0.1c0.1,0.1,0.4,0.4,0.6,0.5c0,0-0.1,0.4-0.1,0.4c-1,1.2-4.9,1.5-7.2,0.6
				C31.9,51.1,32,51,32,51C33.9,48.1,35.6,47.4,38.7,49.6L38.7,49.6z"/>
			<path class="st17" d="M31.1,46.4c0,1.8,0.2,3,0.7,4.7c-0.7-0.3-2.2-1.4-2.6-2c-0.4-0.8,0.4-2,0.9-2.7
				C31.2,44.9,31,45.3,31.1,46.4L31.1,46.4z"/>
			<path class="st39" d="M38.2,43.9c0.1,0,0,0.1,0.1,0.1c-0.2,0.6-0.9,1-0.8,1.6l-0.1,0.1c-0.3-0.4-2.6-3.1-2.9-3.1
				c-0.8,0.8-2.9,2.8-3.1,3.8l-0.3-0.1c0-1.1,0.1-1.5-1,0c-0.5,0.7-1.3,1.9-0.9,2.7c-0.2-0.3-0.2-0.4-0.3-0.9c0.1-0.9,1.7-3,1.9-3
				c0.5-0.1,0.3,0.5,0.5,0.5c0.1,0,0.6-0.8,1.3-1.6c0.6-0.6,1.2-1.2,1.9-1.8l2.7,2.8C37.3,45.1,38.1,44.1,38.2,43.9L38.2,43.9z"/>
			<path class="st40" d="M31.4,46.5C31.2,48,31.5,49.5,32,51c0,0,0,0.1,0.1,0.3c-0.1,0-0.2-0.1-0.3-0.1c-0.5-1.7-0.7-2.9-0.7-4.7
				L31.4,46.5L31.4,46.5z"/>
			<path class="st41" d="M40.3,48.6c0.1,0.1,0.3,0,0.3,0.1c-0.3,0.1-0.2,0.1,0.1,0.1L40.5,49c-0.1,0-0.2-0.1-0.3,0l-1,1.7
				c0,0-0.1,0-0.1-0.1c0,0,0.1-0.4,0.1-0.4c0.5-0.7,0.8-1.5,0.8-2.4h0.1C40.2,48,40.2,48.5,40.3,48.6L40.3,48.6z"/>
			<path class="st17" d="M37.4,45.8c0.9,1.5,1.1,3.4,1.3,3.8c-3-2.3-4.8-1.6-6.7,1.3c-0.5-1.4-0.8-3-0.6-4.5c0.2-1,2.4-2.9,3.1-3.8
				C34.8,42.7,37.1,45.4,37.4,45.8L37.4,45.8z"/>
			<path class="st17" d="M40.1,47.8c0.1,0.9-0.3,1.7-0.8,2.4c-0.2-0.1-0.5-0.3-0.6-0.5c0.1-1.8-1.2-3.9-1.2-4.1
				c-0.2-0.6,0.6-1,0.8-1.6C38.8,45.1,40,46.7,40.1,47.8L40.1,47.8z"/>
			<path class="st40" d="M38.7,49.8c0-0.1,0-0.1-0.1-0.1c-0.2-0.5-0.4-2.3-1.3-3.8l0.1-0.1C37.6,45.9,38.8,48,38.7,49.8z"/>
		</g>
		<g>
			<path class="st34" d="M48.9,35.7c-0.4-0.2-0.6-0.3-0.1,0.1c-0.4,0.5-0.2,1.3-0.3,2c-0.1,0.5-0.6,2.4-0.6,2.5
				c0,0.3,0.1,0.1,0.2,0.2c-0.1,0.1-0.3,0.2-0.4,0.3c-0.9,0.6-1.8,1.2-2.6,1.9c-0.2-0.5,0.6-1.6,0.1-1.7c-0.8,0.3-1.8,0.6-2.4,0.7
				c-1.2,0.6-2.6,1.1-3.8,1.5c0.6-1,1.4-2.2,2.1-3.2c0.2-0.1,0.3,0.2,0.4,0.2c0.5,0,5.8-6.2,7-6.8c0.1-0.1,0.2-0.1,0.3,0
				C48.6,34.1,48.9,34.9,48.9,35.7L48.9,35.7z"/>
			<path class="st33" d="M51.3,28.5c0.1,0.1,0,0.2,0.3,0.2c-4.9,4.7-6.5,5.4-10.5,11.2c-0.7,1-1.5,2.2-2.1,3.2
				c-0.2,0.4-0.4,0.5-0.4,0.5l-0.1-0.1c0,0,0.1-0.4,0.1-0.4c3-4.6,4-6.6,8.2-10.5c1.1-1,3.1-2.4,3.9-3.5c0,0,0.3-0.2,0.3-0.2
				c0-0.1-0.1-0.5-0.1-0.8L51,28C51,28.1,51.2,28.4,51.3,28.5L51.3,28.5z"/>
			<path class="st33" d="M48.9,35.7c0.7,0.4,2.3,1.4,2.8,2c0.1,0.1,0.1,0.1,0.1,0.1c0.2,0.3,0.7,1.2,0.8,1.5c0,0.1,0,1.2,0,1.3
				c-0.5,4-7.1,6.4-10.4,7.7c-0.3-0.1-0.6,0.2-0.8,0c2.9-1.1,7.9-3.1,9.8-5.5c3.5-4.3-1.5-6-2.5-7C48.3,35.4,48.5,35.5,48.9,35.7
				L48.9,35.7z"/>
			<g>
				<path class="st34" d="M41.4,48.3c-0.3,0.1-0.8,0.3-1.2,0.3c-0.1-0.1,0-0.6-0.1-0.8c-0.3-1.9-0.9-2.2-1.7-3.9
					c0-0.1,0-0.2,0.1-0.3c0,0,0.2-0.2,0.4-0.5c1.3-0.4,2.6-0.9,3.8-1.5c0.6-0.1,1.6-0.4,2.4-0.7c0.5,0.1-0.4,1.1-0.1,1.7
					c0.8-0.7,1.7-1.3,2.6-1.9c1.1-0.5,4.2-2.1,2.5-1.4c-0.7,0.3-1.5,0.8-2.1,1.1c-0.1-0.1-0.2,0-0.2-0.2c0-0.1,0.5-2,0.6-2.5
					c0.1-0.6,0-1.5,0.3-2c1,1,6,2.7,2.5,7C49.3,45.2,44.4,47.2,41.4,48.3L41.4,48.3z"/>
				<g>
					<path class="st37" d="M38.5,43.7c0,0.1-0.1,0.2-0.1,0.3c0.8,1.7,1.4,2,1.7,3.9h-0.1c-0.1-1.1-1.3-2.7-1.9-3.8
						c0,0,0-0.1-0.1-0.1C38.4,43.7,38.5,43.6,38.5,43.7L38.5,43.7L38.5,43.7z"/>
					<g>
						<path class="st24" d="M47.7,40.8c0.1-0.1,0.3-0.2,0.4-0.3c0.6-0.4,1.4-0.9,2.1-1.1C51.9,38.7,48.7,40.3,47.7,40.8L47.7,40.8z"
							/>
						<path class="st24" d="M50,41.4c0.1,0,0.2,0,0.2,0c-3,1-6,2.2-9,3C42.3,44,49.5,41.4,50,41.4z"/>
						<path class="st24" d="M40,44.7c0.1,0,0.2,0,0.2,0C39.2,45.2,39.1,44.8,40,44.7z"/>
						<path class="st24" d="M40.8,44.4c0.1,0,0.2,0,0.2,0C39.9,45,40.3,44.4,40.8,44.4z"/>
						<path class="st24" d="M50.8,41.1c0.2,0,0.2,0,0.1,0.1C50.4,41.5,50.3,41.1,50.8,41.1z"/>
						<path class="st42" d="M51.3,38.9c0.1,0,0.1,0.1,0,0.1C50.8,39.3,51,38.9,51.3,38.9z"/>
						<path class="st24" d="M51.2,41c0.4-0.1-0.1,0.3-0.2,0.1C51,41.1,51.2,41,51.2,41z"/>
					</g>
				</g>
			</g>
		</g>
	</g>
</g>
</svg>
